<svg height="1066.6666pt" viewBox="-33 -33 1066.6666 1066.6666" width="1066.6666pt" xmlns="http://www.w3.org/2000/svg"><path d="m58.527344 56.574219h175.78125v-58.59375h-236.328125v234.375h60.546875zm0 0"/><path d="m761.652344-2.019531v58.59375h175.78125v175.78125h60.546875v-234.375zm0 0"/><path d="m937.433594 935.480469h-175.78125v62.5h236.328125v-238.28125h-60.546875zm0 0"/><path d="m58.527344 759.699219h-60.546875v238.28125h236.328125v-62.5h-175.78125zm0 0"/><path d="m117.121094 115.167969v292.96875h292.96875v-175.78125h58.59375v-58.59375h-58.59375v-58.59375zm175.78125 175.78125h-58.59375v-58.59375h58.59375zm0 0"/><path d="m878.839844 876.886719v-292.96875h-117.1875v-58.59375h-58.59375v58.59375h-175.78125v58.59375h58.59375v58.59375h-58.59375v58.59375h58.59375v117.1875zm-175.78125-175.78125h58.59375v58.59375h-58.59375zm0 0"/><path d="m292.902344 525.324219h117.1875v-58.59375c-21.367188 0-279.859375 0-292.96875 0v58.59375h117.1875v58.59375h-58.59375v58.59375h58.59375v117.1875h-58.59375v58.59375h58.59375v58.59375h292.96875v-58.59375h-58.59375v-58.59375h-58.59375v58.59375h-117.1875v-58.59375h58.59375v-58.59375h-58.59375zm0 0"/><path d="m761.652344 466.730469v-58.59375h117.1875v-292.96875h-292.96875v292.96875h117.1875v58.59375zm-58.59375-234.375h58.59375v58.59375h-58.59375zm0 0"/><path d="m878.839844 525.324219v-58.59375c-6.171875 0-111.601563 0-117.1875 0v58.59375zm0 0"/><path d="m468.683594 642.511719h58.59375v58.59375h-58.59375zm0 0"/><path d="m351.496094 642.511719v58.59375h58.59375v-117.1875h-58.59375zm0 0"/><path d="m410.089844 525.324219h58.59375v58.59375h-58.59375zm0 0"/><path d="m117.121094 642.511719v117.1875h58.59375c0-6.171875 0-111.601563 0-117.1875zm0 0"/><path d="m117.121094 818.292969h58.59375v58.59375h-58.59375zm0 0"/><path d="m468.683594 115.167969h58.59375v58.59375h-58.59375zm0 0"/><path d="m527.277344 349.542969c0-6.171875 0-111.601563 0-117.1875h-58.59375v117.1875zm0 0"/><path d="m527.277344 466.730469v-58.59375h-58.59375v117.1875h234.375v-58.59375zm0 0"/></svg>